<?xml version="1.0" encoding="UTF-8" standalone="no"?>
<svg
   xmlns:dc="http://purl.org/dc/elements/1.1/"
   xmlns:cc="http://creativecommons.org/ns#"
   xmlns:rdf="http://www.w3.org/1999/02/22-rdf-syntax-ns#"
   xmlns:svg="http://www.w3.org/2000/svg"
   xmlns="http://www.w3.org/2000/svg"
   width="107.26592mm"
   height="113.53253mm"
   viewBox="0 0 107.26592 113.53253"
   version="1.1"
   id="svg8">
  <defs
     id="defs2" />
  <metadata
     id="metadata5">
    <rdf:RDF>
      <cc:Work
         rdf:about="">
        <dc:format>image/svg+xml</dc:format>
        <dc:type
           rdf:resource="http://purl.org/dc/dcmitype/StillImage" />
        <dc:title></dc:title>
      </cc:Work>
    </rdf:RDF>
  </metadata>
  <g
     style="fill:#ffffff"
     id="layer1"
     transform="translate(-43.485968,-34.466626)">
    <path
       style="fill:#ffffff;fill-opacity:1;stroke-width:0.10763663"
       d="m 44.750698,147.97012 -1.26473,-0.0376 v -0.42713 -0.42713 h 1.921933 1.921933 l 3.056261,-3.36291 c 1.680946,-1.8496 3.327626,-3.65386 3.65929,-4.00947 0.331669,-0.3556 1.348834,-1.47218 2.26037,-2.48127 0.911539,-1.0091 3.352616,-3.69798 5.424622,-5.97528 2.072005,-2.27731 4.033683,-4.43396 4.359286,-4.79256 3.313529,-3.64932 8.42243,-9.26001 9.253701,-10.16259 0.572495,-0.6216 2.31524,-2.53484 3.872771,-4.25164 1.557526,-1.71681 3.270887,-3.59994 3.807468,-4.18475 L 83.999208,106.79447 72.911713,95.733189 C 66.028774,88.866527 61.602336,84.530145 61.239114,84.298073 c -1.341482,-0.857108 -2.840179,-1.213808 -5.764378,-1.371965 -1.171694,-0.06337 -2.152706,-0.137577 -2.180031,-0.164903 -0.02734,-0.02734 4.148148,-0.04968 9.278826,-0.04968 h 9.32851 v 0.269088 0.269092 l -1.049458,0.01696 c -0.577202,0.0093 -1.122112,0.0122 -1.210911,0.0064 -0.423622,-0.02779 -1.098403,0.24088 -1.346963,0.536273 -0.324785,0.385986 -0.336148,0.66695 -0.04702,1.162589 0.120869,0.2072 5.581901,5.725926 12.135628,12.263836 l 11.915866,11.887107 0.02746,-10.272198 c 0.02974,-11.124427 0.03543,-11.002919 -0.57411,-12.24389 -0.913562,-1.859933 -2.828923,-3.052447 -5.167808,-3.217505 l -0.905193,-0.06388 v -0.306922 -0.306922 h 11.517121 11.517117 l -8.1e-4,0.295999 -8.2e-4,0.295999 -0.83325,0.02945 c -3.10207,0.109669 -5.37017,1.730609 -5.83259,4.168372 -0.0877,0.462533 -0.11358,3.623515 -0.091,11.137778 l 0.0315,10.491949 11.55996,-11.514496 c 6.35798,-6.332982 11.79455,-11.795031 12.08129,-12.137891 0.59343,-0.709613 0.70871,-1.027629 0.52939,-1.460537 -0.22064,-0.532672 -0.74173,-0.698434 -2.34731,-0.746698 l -1.42619,-0.04287 V 82.97008 82.711549 l 9.33748,0.01526 c 8.03487,0.01314 11.16761,0.0906 7.40002,0.182957 -2.52553,0.06191 -3.9662,0.345741 -5.51019,1.085567 l -0.88183,0.422535 -11.22398,11.187731 -11.22398,11.187731 1.61123,1.75315 c 0.88618,0.96424 1.87763,2.04778 2.20324,2.40788 0.81717,0.90374 6.69609,7.36899 15.81561,17.39296 4.22898,4.64839 9.79276,10.76447 12.36395,13.59127 l 4.67489,5.13965 h 1.90076 1.90075 l -0.0411,0.43055 -0.0411,0.43055 -0.76905,0.0174 c -5.48996,0.12464 -11.28357,-0.34927 -13.57783,-1.11065 -3.45183,-1.14555 -7.78167,-4.85099 -12.05469,-10.31629 -0.98514,-1.26002 -1.61109,-2.0143 -2.5408,-3.06169 -0.21309,-0.24008 -1.32838,-1.52632 -2.47841,-2.85833 -2.75398,-3.18973 -9.74798,-11.26758 -10.11161,-11.67857 -0.15713,-0.1776 -0.93532,-1.07368 -1.72931,-1.99128 -0.79399,-0.9176 -1.94701,-2.2496 -2.56227,-2.96001 -0.61525,-0.7104 -1.51022,-1.74549 -1.98882,-2.30021 l -0.87018,-1.00858 -0.0273,15.96607 -0.0273,15.96606 0.16591,0.64982 c 0.60923,2.38631 2.70697,3.83047 5.74002,3.95162 l 0.87466,0.0349 8.1e-4,0.296 8.2e-4,0.296 H 97.197361 85.680244 v -0.30692 -0.30692 l 0.905189,-0.0639 c 2.858494,-0.20173 5.024185,-1.9059 5.605065,-4.41061 l 0.163939,-0.70687 -0.02726,-15.68135 -0.02726,-15.68134 -0.865341,1.00727 c -0.475999,0.554 -2.778714,3.21112 -5.117204,5.90473 -2.33849,2.69361 -5.049021,5.82096 -6.023402,6.94966 -0.97438,1.12871 -2.667677,3.0863 -3.762878,4.3502 -1.095204,1.26391 -2.791918,3.22239 -3.770477,4.35219 -0.978558,1.1298 -2.116661,2.49011 -2.529116,3.02291 -4.055471,5.2388 -8.250867,8.97429 -11.586792,10.31665 -2.442053,0.98265 -8.217788,1.56164 -13.893331,1.39273 z M 91.160254,72.512943 c -0.06626,-0.611652 -0.03791,-0.740802 0.20473,-0.932983 0.460031,-0.364355 0.557353,-0.791703 0.558883,-2.454113 0.0042,-4.569455 1.704716,-6.941282 5.131174,-7.156807 3.904189,-0.245575 6.194269,2.518987 5.992479,7.234077 -0.0517,1.206892 0.10172,1.899657 0.5112,2.30914 0.22736,0.227362 0.3114,0.415297 0.3114,0.696406 v 0.385008 h -6.350561 c -3.492809,0 -6.354497,-0.03633 -6.359305,-0.08073 z M 93.68952,56.349509 c -0.121369,-0.12128 -0.01859,-1.89861 0.159749,-2.762765 0.369221,-1.788993 1.240852,-3.057396 2.355393,-3.427586 l 0.520101,-0.17275 0.303892,-2.823677 c 0.525715,-4.884806 0.557903,-5.125712 0.628908,-4.707317 0.07666,0.451694 0.511323,6.447348 0.50926,7.024647 l -0.0016,0.404995 0.570864,0.252463 c 1.638623,0.724675 2.430283,2.24722 2.525723,4.857563 l 0.0512,1.399276 h -3.789365 c -2.084149,0 -3.809556,-0.02018 -3.834242,-0.04485 z m 3.184219,-20.675203 c -0.452094,-0.452094 -0.128932,-1.188614 0.529739,-1.207342 0.659375,-0.01875 1.006348,0.74762 0.546626,1.207342 -0.119595,0.119596 -0.358787,0.215273 -0.538184,0.215273 -0.179394,0 -0.418585,-0.09568 -0.538181,-0.215273 z"
       id="path3877" />
  </g>
</svg>
