<svg width="405.415" height="429.099" viewBox="0 0 107.266 113.533" xmlns="http://www.w3.org/2000/svg" xmlns:xlink="http://www.w3.org/1999/xlink" id="svg8" overflow="hidden"><defs id="defs2"></defs><g id="layer1" transform="translate(-43.486 -34.4666)"><path d="M44.7507 147.97 43.486 147.933 43.486 147.505 43.486 147.078 45.4079 147.078 47.3298 147.078 50.3861 143.715C52.067 141.866 53.7137 140.061 54.0454 139.706 54.3771 139.35 55.3942 138.234 56.3058 137.225 57.2173 136.216 59.6584 133.527 61.7304 131.249 63.8024 128.972 65.7641 126.815 66.0897 126.457 69.4032 122.807 74.5121 117.197 75.3434 116.294 75.9159 115.673 77.6586 113.759 79.2161 112.043 80.7737 110.326 82.487 108.443 83.0236 107.858L83.9992 106.794 72.9117 95.7332C66.0288 88.8665 61.6023 84.5301 61.2391 84.2981 59.8976 83.441 58.3989 83.0843 55.4747 82.9261 54.303 82.8627 53.322 82.7885 53.2947 82.7612 53.2674 82.7339 57.4429 82.7115 62.5735 82.7115L71.902 82.7115 71.902 82.9806 71.902 83.2497 70.8526 83.2667C70.2754 83.276 69.7305 83.2789 69.6417 83.2731 69.218 83.2453 68.5433 83.5139 68.2947 83.8093 67.9699 84.1953 67.9586 84.4763 68.2477 84.9719 68.3686 85.1791 73.8296 90.6979 80.3833 97.2358L92.2992 109.123 92.3266 98.8507C92.3564 87.7262 92.3621 87.8478 91.7525 86.6068 90.839 84.7468 88.9236 83.5543 86.5847 83.3893L85.6795 83.3254 85.6795 83.0185 85.6795 82.7116 97.1967 82.7116 108.714 82.7116 108.713 83.0076 108.712 83.3036 107.879 83.333C104.777 83.4427 102.509 85.0636 102.046 87.5014 101.959 87.9639 101.933 91.1249 101.955 98.6392L101.987 109.131 113.547 97.6166C119.905 91.2836 125.341 85.8216 125.628 85.4787 126.221 84.7691 126.337 84.4511 126.157 84.0182 125.937 83.4855 125.416 83.3197 123.81 83.2715L122.384 83.2286 122.384 82.9701 122.384 82.7115 131.721 82.7268C139.756 82.74 142.889 82.8174 139.121 82.9098 136.596 82.9717 135.155 83.2555 133.611 83.9953L132.729 84.4179 121.505 95.6056 110.281 106.793 111.893 108.546C112.779 109.511 113.77 110.594 114.096 110.954 114.913 111.858 120.792 118.323 129.912 128.347 134.141 132.996 139.704 139.112 142.275 141.939L146.95 147.078 148.851 147.078 150.752 147.078 150.711 147.509 150.67 147.939 149.901 147.957C144.411 148.081 138.617 147.607 136.323 146.846 132.871 145.701 128.541 141.995 124.268 136.53 123.283 135.27 122.657 134.516 121.727 133.468 121.514 133.228 120.399 131.942 119.249 130.61 116.495 127.42 109.501 119.342 109.137 118.931 108.98 118.754 108.202 117.858 107.408 116.94 106.614 116.022 105.461 114.69 104.846 113.98 104.23 113.27 103.336 112.234 102.857 111.68L101.987 110.671 101.959 126.637 101.932 142.603 102.098 143.253C102.707 145.639 104.805 147.084 107.838 147.205L108.713 147.24 108.714 147.536 108.714 147.832 97.1974 147.832 85.6802 147.832 85.6802 147.525 85.6802 147.218 86.5854 147.154C89.4439 146.952 91.6096 145.248 92.1905 142.743L92.3544 142.036 92.3272 126.355 92.2999 110.674 91.4346 111.681C90.9586 112.235 88.6559 114.892 86.3174 117.586 83.9789 120.279 81.2683 123.407 80.294 124.535 79.3196 125.664 77.6263 127.622 76.5311 128.886 75.4359 130.149 73.7392 132.108 72.7606 133.238 71.7821 134.368 70.644 135.728 70.2315 136.261 66.176 141.499 61.9806 145.235 58.6447 146.577 56.2027 147.56 50.4269 148.139 44.7514 147.97ZM91.1603 72.5129C91.094 71.9013 91.1223 71.7721 91.365 71.58 91.825 71.2156 91.9223 70.7883 91.9239 69.1258 91.9281 64.5564 93.6286 62.1846 97.055 61.969 100.959 61.7235 103.249 64.488 103.048 69.2031 102.996 70.41 103.149 71.1028 103.559 71.5123 103.786 71.7396 103.87 71.9276 103.87 72.2087L103.87 72.5937 97.5196 72.5937C94.0267 72.5937 91.1651 72.5573 91.1603 72.5129ZM93.6895 56.3495C93.5682 56.2282 93.6709 54.4509 93.8493 53.5867 94.2185 51.7978 95.0901 50.5293 96.2047 50.1592L96.7248 49.9864 97.0287 47.1627C97.5544 42.2779 97.5866 42.037 97.6576 42.4554 97.7342 42.9071 98.1689 48.9028 98.1668 49.4801L98.1652 49.8851 98.7361 50.1375C100.375 50.8622 101.166 52.3847 101.262 54.9951L101.313 56.3944 97.5236 56.3944C95.4395 56.3944 93.7141 56.3742 93.6894 56.3495ZM96.8737 35.6743C96.4216 35.2222 96.7448 34.4857 97.4035 34.467 98.0629 34.4482 98.4098 35.2146 97.9501 35.6743 97.8305 35.7939 97.5913 35.8896 97.4119 35.8896 97.2325 35.8896 96.9933 35.7939 96.8737 35.6743Z" id="path3877" stroke-width="0.107637" fill="#750000"/></g></svg>